<?xml version="1.0" encoding="UTF-8" standalone="no"?>
<!-- Created with Inkscape (http://www.inkscape.org/) -->

<svg
   xmlns:dc="http://purl.org/dc/elements/1.1/"
   xmlns:cc="http://creativecommons.org/ns#"
   xmlns:rdf="http://www.w3.org/1999/02/22-rdf-syntax-ns#"
   xmlns:svg="http://www.w3.org/2000/svg"
   xmlns="http://www.w3.org/2000/svg"
   xmlns:sodipodi="http://sodipodi.sourceforge.net/DTD/sodipodi-0.dtd"
   xmlns:inkscape="http://www.inkscape.org/namespaces/inkscape"
   width="402.60147"
   height="226.76476"
   id="svg2"
   version="1.1"
   inkscape:version="0.48.5 r10040"
   sodipodi:docname="LS-policy-iteration.svg">
  <sodipodi:namedview
     id="base"
     pagecolor="#ffffff"
     bordercolor="#666666"
     borderopacity="1.0"
     inkscape:pageopacity="0.0"
     inkscape:pageshadow="2"
     inkscape:zoom="1.979899"
     inkscape:cx="248.19838"
     inkscape:cy="127.74912"
     inkscape:document-units="px"
     inkscape:current-layer="layer1"
     showgrid="true"
     inkscape:window-width="1920"
     inkscape:window-height="1014"
     inkscape:window-x="0"
     inkscape:window-y="27"
     inkscape:window-maximized="1"
     fit-margin-top="0"
     fit-margin-left="0"
     fit-margin-right="0"
     fit-margin-bottom="0"
     showborder="false"
     inkscape:showpageshadow="false">
    <inkscape:grid
       id="grid2985"
       type="xygrid"
       empspacing="5"
       visible="true"
       enabled="true"
       snapvisiblegridlinesonly="true"
       originx="-297.89854px"
       originy="-663.73524px" />
  </sodipodi:namedview>
  <defs
     id="defs4">
    <marker
       style="overflow:visible"
       id="TriangleOutM"
       refX="0"
       refY="0"
       orient="auto"
       inkscape:stockid="TriangleOutM">
      <path
         transform="scale(0.4,0.4)"
         style="fill-rule:evenodd;stroke:#000000;stroke-width:1pt"
         d="m 5.77,0 -8.65,5 0,-10 8.65,5 z"
         id="path4318"
         inkscape:connector-curvature="0" />
    </marker>
    <marker
       style="overflow:visible"
       id="Arrow2Mend"
       refX="0"
       refY="0"
       orient="auto"
       inkscape:stockid="Arrow2Mend">
      <path
         transform="scale(-0.6,-0.6)"
         d="M 8.7185878,4.0337352 -2.2072895,0.01601326 8.7185884,-4.0017078 c -1.7454984,2.3720609 -1.7354408,5.6174519 -6e-7,8.035443 z"
         style="fill-rule:evenodd;stroke-width:0.625;stroke-linejoin:round"
         id="path4200"
         inkscape:connector-curvature="0" />
    </marker>
    <marker
       style="overflow:visible"
       id="Arrow2Lend"
       refX="0"
       refY="0"
       orient="auto"
       inkscape:stockid="Arrow2Lend">
      <path
         transform="matrix(-1.1,0,0,-1.1,-1.1,0)"
         d="M 8.7185878,4.0337352 -2.2072895,0.01601326 8.7185884,-4.0017078 c -1.7454984,2.3720609 -1.7354408,5.6174519 -6e-7,8.035443 z"
         style="fill-rule:evenodd;stroke-width:0.625;stroke-linejoin:round"
         id="path4194"
         inkscape:connector-curvature="0" />
    </marker>
  </defs>
  <metadata
     id="metadata7">
    <rdf:RDF>
      <cc:Work
         rdf:about="">
        <dc:format>image/svg+xml</dc:format>
        <dc:type
           rdf:resource="http://purl.org/dc/dcmitype/StillImage" />
        <dc:title />
      </cc:Work>
    </rdf:RDF>
  </metadata>
  <g
     id="layer1"
     inkscape:groupmode="layer"
     inkscape:label="Calque 1"
     transform="translate(-297.89854,-161.86218)">
    <text
       sodipodi:linespacing="125%"
       id="text2987"
       y="332.36218"
       x="510"
       style="font-size:12px;font-style:normal;font-weight:normal;line-height:125%;letter-spacing:0px;word-spacing:0px;fill:#000000;fill-opacity:1;stroke:none;font-family:Sans"
       xml:space="preserve"><tspan
         y="332.36218"
         x="510"
         id="tspan2989"
         sodipodi:role="line" /></text>
    <text
       sodipodi:linespacing="125%"
       id="text2997"
       y="306.8696"
       x="562.1499"
       style="font-size:12px;font-style:normal;font-weight:normal;line-height:125%;letter-spacing:0px;word-spacing:0px;fill:#000000;fill-opacity:1;stroke:none;font-family:Sans"
       xml:space="preserve"><tspan
         y="306.8696"
         x="562.1499"
         id="tspan2999"
         sodipodi:role="line" /></text>
    <text
       sodipodi:linespacing="125%"
       id="text3001"
       y="359.90262"
       x="496.48999"
       style="font-size:12px;font-style:normal;font-weight:normal;line-height:125%;letter-spacing:0px;word-spacing:0px;fill:#000000;fill-opacity:1;stroke:none;font-family:Sans"
       xml:space="preserve"><tspan
         y="359.90262"
         x="496.48999"
         id="tspan3003"
         sodipodi:role="line" /></text>
    <text
       sodipodi:linespacing="125%"
       id="text3005"
       y="359.90262"
       x="496.48999"
       style="font-size:12px;font-style:normal;font-weight:normal;line-height:125%;letter-spacing:0px;word-spacing:0px;fill:#000000;fill-opacity:1;stroke:none;font-family:Sans"
       xml:space="preserve"><tspan
         y="359.90262"
         x="496.48999"
         id="tspan3007"
         sodipodi:role="line" /></text>
    <g
       transform="translate(-39.70703,-13.894477)"
       id="g3369">
      <rect
         style="opacity:0.98000004;color:#000000;fill:none;stroke:#000000;stroke-width:1;marker:none;visibility:visible;display:inline;overflow:visible;enable-background:accumulate"
         id="rect3297"
         width="80"
         height="45"
         x="500"
         y="347.36218"
         ry="0" />
      <text
         xml:space="preserve"
         style="font-size:12px;font-style:normal;font-weight:normal;text-align:center;line-height:125%;letter-spacing:0px;word-spacing:0px;text-anchor:middle;fill:#000000;fill-opacity:1;stroke:none;font-family:Sans"
         x="539.98828"
         y="360.40768"
         id="text3009"
         sodipodi:linespacing="125%"><tspan
           sodipodi:role="line"
           id="tspan3011"
           x="539.98828"
           y="360.40768">Politique</tspan><tspan
           sodipodi:role="line"
           x="539.98828"
           y="375.40768"
           id="tspan3013">gloutonne</tspan></text>
      <g
         id="g3077"
         transform="matrix(0.35986355,0,0,0.35986355,427.03253,260.82407)">
        <g
           id="content"
           transform="matrix(1.0629921,0,0,-1.0629921,-186.02362,789.27165)"
           xml:space="preserve"
           stroke-miterlimit="10.433"
           font-style="normal"
           font-variant="normal"
           font-weight="normal"
           font-stretch="normal"
           font-size-adjust="none"
           letter-spacing="normal"
           word-spacing="normal"
           style="font-style:normal;font-variant:normal;font-weight:normal;font-stretch:normal;letter-spacing:normal;word-spacing:normal;text-anchor:start;fill:none;stroke:#000000;stroke-linecap:butt;stroke-linejoin:miter;stroke-miterlimit:10.43299961;stroke-opacity:1;stroke-dasharray:none;stroke-dashoffset:0"><path
             d="m 468.72,424.78 h 5.63 c -1.64,-7.38 -2.1,-9.52 -2.1,-12.85 0,-0.75 0,-2.09 0.41,-3.79 0.5,-2.19 1.05,-2.49 1.8,-2.49 0.98,0 2.03,0.89 2.03,1.89 0,0.3 0,0.41 -0.3,1.1 -1.44,3.59 -1.44,6.82 -1.44,8.22 0,2.64 0.35,5.34 0.89,7.92 h 5.69 c 0.64,0 2.44,0 2.44,1.7 0,1.19 -1.05,1.19 -2,1.19 h -16.69 c -1.09,0 -2.98,0 -5.17,-2.35 -1.75,-1.93 -3.05,-4.23 -3.05,-4.48 0,-0.05 0,-0.48 0.6,-0.48 0.4,0 0.5,0.18 0.79,0.59 2.46,3.83 5.35,3.83 6.33,3.83 h 2.85 c -1.6,-6.02 -4.29,-12.05 -6.38,-16.58 -0.41,-0.75 -0.41,-0.86 -0.41,-1.2 0,-0.96 0.8,-1.35 1.46,-1.35 1.5,0 1.89,1.39 2.48,3.24 0.71,2.29 0.71,2.39 1.35,4.89 z"
             id="path3080"
             inkscape:connector-curvature="0"
             style="fill:#000000;stroke-width:0" /></g>      </g>
    </g>
    <g
       transform="translate(0,2.819611)"
       id="g3386">
      <g
         id="g3340"
         transform="translate(-39.730469,-10.819611)">
        <rect
           ry="20"
           y="252.36218"
           x="340"
           height="70"
           width="150"
           id="rect3249"
           style="opacity:0.98000004;color:#000000;fill:#f2f2f2;stroke:#000000;stroke-width:0.9682458;marker:none;visibility:visible;display:inline;overflow:visible;enable-background:accumulate" />
        <text
           sodipodi:linespacing="125%"
           id="text3017"
           y="288.18179"
           x="414.73047"
           style="font-size:12px;font-style:normal;font-weight:normal;text-align:center;line-height:125%;letter-spacing:0px;word-spacing:0px;text-anchor:middle;fill:#000000;fill-opacity:1;stroke:none;font-family:Sans"
           xml:space="preserve"><tspan
             id="tspan3023"
             y="288.18179"
             x="414.73047"
             sodipodi:role="line">Évaluation approchée</tspan><tspan
             id="tspan3029"
             y="303.18179"
             x="414.73047"
             sodipodi:role="line">de la politique</tspan><tspan
             id="tspan3031"
             y="318.18179"
             x="414.73047"
             sodipodi:role="line">(point fixe de     )</tspan></text>
        <g
           transform="matrix(0.28945403,0,0,0.28945403,357.88459,215.07759)"
           id="g3186">
          <g
             style="font-style:normal;font-variant:normal;font-weight:normal;font-stretch:normal;letter-spacing:normal;word-spacing:normal;text-anchor:start;fill:none;stroke:#000000;stroke-linecap:butt;stroke-linejoin:miter;stroke-miterlimit:10.43299961;stroke-opacity:1;stroke-dasharray:none;stroke-dashoffset:0"
             id="g3188"
             transform="matrix(1.0629921,0,0,-1.0629921,-186.02362,789.27165)"
             xml:space="preserve"
             stroke-miterlimit="10.433"
             font-style="normal"
             font-variant="normal"
             font-weight="normal"
             font-stretch="normal"
             font-size-adjust="none"
             letter-spacing="normal"
             word-spacing="normal"><path
               style="fill:#000000;stroke-width:0"
               inkscape:connector-curvature="0"
               d="m 480.88,426.32 -0.01,0.02 0,0.02 -0.01,0.01 -0.01,0.02 0,0.02 -0.01,0.02 -0.01,0.03 -0.01,0.02 -0.01,0.02 -0.01,0.02 -0.01,0.03 -0.01,0.02 -0.02,0.05 -0.02,0.06 -0.02,0.05 -0.02,0.05 -0.01,0.02 -0.01,0.03 -0.01,0.02 -0.01,0.02 -0.01,0.03 0,0.02 -0.01,0.02 0,0.02 -0.01,0.02 0,0.02 0,0.01 0,0.02 c 0,0.04 0.89,0.75 1.45,1.14 l 8.72,6.73 c 4.67,3.44 6.63,3.63 8.11,3.78 0.41,0.05 0.91,0.1 0.91,1 0,0.19 -0.16,0.55 -0.55,0.55 -1.11,0 -2.34,-0.16 -3.55,-0.16 -1.79,0 -3.73,0.16 -5.53,0.16 -0.34,0 -0.94,0 -0.94,-1 0,-0.34 0.25,-0.5 0.6,-0.55 1.09,-0.09 1.54,-0.34 1.54,-1.04 0,-0.89 -1.5,-2.05 -1.79,-2.3 l -19.44,-14.94 4,15.99 c 0.44,1.79 0.55,2.29 4.17,2.29 1.25,0 1.71,0 1.71,1 0,0.44 -0.41,0.55 -0.71,0.55 -1.39,0 -4.98,-0.16 -6.37,-0.16 -1.44,0 -4.99,0.16 -6.42,0.16 -0.36,0 -1,0 -1,-0.95 0,-0.6 0.45,-0.6 1.43,-0.6 0.66,0 1.55,-0.04 2.14,-0.09 0.8,-0.11 1.11,-0.25 1.11,-0.8 0,-0.2 -0.06,-0.36 -0.2,-0.95 l -6.67,-26.75 c -0.5,-1.95 -0.61,-2.34 -4.55,-2.34 -0.84,0 -1.39,0 -1.39,-0.96 0,-0.59 0.59,-0.59 0.75,-0.59 1.39,0 4.94,0.16 6.33,0.16 1.05,0 2.14,-0.07 3.19,-0.07 1.09,0 2.18,-0.09 3.23,-0.09 0.36,0 1,0 1,1 0,0.55 -0.45,0.55 -1.39,0.55 -1.84,0 -3.23,0 -3.23,0.89 0,0.36 0.29,1.45 0.43,2.2 0.71,2.58 1.35,5.22 2,7.81 l 7.42,5.78 5.79,-13.4 c 0.59,-1.35 0.59,-1.44 0.59,-1.74 0,-1.5 -2.14,-1.54 -2.59,-1.54 -0.55,0 -1.1,0 -1.1,-1 0,-0.55 0.6,-0.55 0.71,-0.55 1.98,0 4.07,0.16 6.07,0.16 1.1,0 3.78,-0.16 4.88,-0.16 0.25,0 0.9,0 0.9,1 0,0.55 -0.56,0.55 -1,0.55 -2.04,0.04 -2.68,0.5 -3.43,2.23 z"
               id="path3190" /><path
               style="fill:#000000;stroke-width:0"
               inkscape:connector-curvature="0"
               d="m 511.59,440.65 0.03,0.06 0.02,0.05 0.02,0.05 0.02,0.05 0.02,0.04 0.02,0.05 0.02,0.04 0.02,0.04 0.01,0.05 0.02,0.04 0.01,0.03 0.01,0.04 0.01,0.04 0.01,0.03 0.01,0.04 0.01,0.03 0.01,0.03 0.01,0.03 0,0.03 0.01,0.03 0,0.03 0.01,0.03 0,0.03 0,0.02 0.01,0.06 0,0.05 0,0.04 0,0.05 c 0,1.08 -0.98,1.92 -2.06,1.92 -1.33,0 -1.73,-1.09 -1.91,-1.64 l -4.61,-15.09 c -0.03,-0.06 -0.17,-0.52 -0.17,-0.56 0,-0.41 1.08,-0.77 1.36,-0.77 0.25,0 0.28,0.08 0.52,0.59 z"
               id="path3192" /></g>        </g>
        <path
           inkscape:connector-curvature="0"
           id="path3251"
           d="m 340,272.36218 150,0"
           style="fill:none;stroke:#000000;stroke-width:1px;stroke-linecap:butt;stroke-linejoin:miter;stroke-opacity:1" />
        <text
           sodipodi:linespacing="125%"
           id="text3289"
           y="265.36218"
           x="415.63028"
           style="font-size:12px;font-style:italic;font-variant:normal;font-weight:normal;font-stretch:normal;text-align:center;line-height:125%;writing-mode:lr-tb;text-anchor:middle;opacity:0.98000004;color:#000000;fill:#000000;stroke:none;stroke-width:1;marker:none;visibility:visible;display:inline;overflow:visible;enable-background:accumulate;font-family:Asana Math;-inkscape-font-specification:Sans Italic"
           xml:space="preserve"><tspan
             y="265.36218"
             x="415.63028"
             id="tspan3291"
             sodipodi:role="line">phase 1</tspan></text>
      </g>
    </g>
    <g
       transform="translate(0,2)"
       id="g3354">
      <rect
         style="opacity:0.98000004;color:#000000;fill:#f2f2f2;stroke:#000000;stroke-width:0.9682458;marker:none;visibility:visible;display:inline;overflow:visible;enable-background:accumulate"
         id="rect3249-9"
         width="150"
         height="70"
         x="550"
         y="242.36218"
         ry="20" />
      <text
         xml:space="preserve"
         style="font-size:12px;font-style:normal;font-weight:normal;text-align:center;line-height:125%;letter-spacing:0px;word-spacing:0px;text-anchor:middle;fill:#000000;fill-opacity:1;stroke:none;font-family:Sans"
         x="625.27246"
         y="276.64789"
         id="text2991"
         sodipodi:linespacing="125%"><tspan
           sodipodi:role="line"
           id="tspan2993"
           x="625.27246"
           y="276.64789">Amélioration gloutonne</tspan><tspan
           sodipodi:role="line"
           x="625.27246"
           y="291.64789"
           id="tspan2995">de la politique</tspan><tspan
           sodipodi:role="line"
           x="627.18262"
           y="306.64789"
           id="tspan3015">basée sur </tspan></text>
      <g
         transform="matrix(0.28809729,0,0,0.28809729,572.24863,204.37738)"
         id="g3180">
        <g
           style="font-style:normal;font-variant:normal;font-weight:normal;font-stretch:normal;letter-spacing:normal;word-spacing:normal;text-anchor:start;fill:none;stroke:#000000;stroke-linecap:butt;stroke-linejoin:miter;stroke-miterlimit:10.43299961;stroke-opacity:1;stroke-dasharray:none;stroke-dashoffset:0"
           id="g3182"
           transform="matrix(1.0629921,0,0,-1.0629921,-186.02362,789.27165)"
           xml:space="preserve"
           stroke-miterlimit="10.433"
           font-style="normal"
           font-variant="normal"
           font-weight="normal"
           font-stretch="normal"
           font-size-adjust="none"
           letter-spacing="normal"
           word-spacing="normal"><polygon
             style="fill:#000000;stroke-width:0"
             points="473.59,445.71 479.38,450.79 485.11,445.71 486,446.6 479.38,453.38 472.7,446.6 "
             id="polygon3184" /><path
             style="fill:#000000;stroke-width:0"
             inkscape:connector-curvature="0"
             d="m 477.35,406.5 0.72,0.29 0.72,0.33 0.71,0.35 0.71,0.4 0.7,0.42 0.69,0.45 0.68,0.48 0.68,0.51 0.65,0.54 0.65,0.56 0.63,0.59 0.61,0.61 0.6,0.64 0.57,0.66 0.56,0.68 0.54,0.7 0.51,0.72 0.49,0.73 0.46,0.76 0.44,0.77 0.41,0.79 0.38,0.8 0.35,0.82 0.32,0.83 0.29,0.84 0.25,0.85 0.21,0.87 0.18,0.87 0.15,0.88 0.1,0.89 0.06,0.89 0.02,0.9 c 0,8.03 -5.28,13.4 -12.71,13.4 l -0.3,-1.25 c 4.98,0 8.62,-3.87 8.62,-10.56 0,-4.98 -2.54,-16.64 -10.9,-21.31 -0.25,1.73 -0.75,5.37 -4.39,5.37 v -1.09 c 2.09,0 3.04,-1.2 3.04,-4.23 0,-0.75 -0.06,-0.8 -0.56,-1 -1.28,-0.55 -2.78,-0.89 -4.17,-0.89 h 0 c -0.7,0 -2.3,0 -2.3,2.14 0,1.98 1.89,3.98 3.99,3.98 v 1.09 c -2.64,0 -5.08,-2.5 -5.08,-5.07 0,-1 0.3,-1.55 0.3,-1.6 h 0 c -3.89,1.53 -5.58,5.42 -5.58,9.91 0,3.44 1.29,10.51 5.08,15.89 3.64,5.09 8.32,7.37 11.95,7.37 l 0.3,1.25 c -10.75,0 -21.72,-11.31 -21.72,-22.92 0,-8.26 5.58,-13.29 12.76,-13.29 1.24,0 2.94,0.2 4.88,0.75 -0.21,-3.1 -0.21,-3.19 -0.21,-3.85 0,-1.59 0,-5.48 4.15,-5.48 5.92,0 8.31,9.12 8.31,9.67 0,0.34 -0.35,0.5 -0.55,0.5 -0.39,0 -0.5,-0.25 -0.59,-0.55 -1.19,-3.54 -4.08,-4.78 -5.83,-4.78 -2.3,0 -3.05,1.34 -3.53,5.13 z"
             id="path3186" /><path
             style="fill:#000000;stroke-width:0"
             inkscape:connector-curvature="0"
             d="m 505.72,436.86 h 4.14 c -0.53,-2.1 -1.29,-5.27 -1.29,-8.02 0,-1.41 0.18,-2.34 0.39,-3.11 0.56,-1.73 1.01,-1.87 1.56,-1.87 0.81,0 1.64,0.73 1.64,1.56 0,0.28 -0.06,0.42 -0.28,0.76 -0.66,1.3 -1.28,3.28 -1.28,6.14 0,0.66 0,2.05 0.48,4.54 h 4.36 c 0.63,0 0.91,0 1.28,0.26 0.49,0.36 0.6,0.91 0.6,1.08 0,1.01 -0.91,1.01 -1.5,1.01 h -13.13 c -1.44,0 -2.4,-0.31 -3.98,-1.78 -0.91,-0.79 -2.27,-2.67 -2.27,-2.98 0,-0.42 0.45,-0.42 0.6,-0.42 0.39,0 0.42,0.06 0.62,0.37 1.78,2.46 3.94,2.46 4.7,2.46 h 2.13 c -1.08,-3.85 -2.95,-7.96 -4,-10.05 -0.2,-0.45 -0.56,-1.19 -0.66,-1.31 -0.04,-0.14 -0.11,-0.29 -0.11,-0.54 0,-0.56 0.42,-1.1 1.22,-1.1 1.39,0 1.78,1.56 2.61,4.7 z"
             id="path3188" /></g>      </g>
      <path
         style="fill:none;stroke:#000000;stroke-width:1px;stroke-linecap:butt;stroke-linejoin:miter;stroke-opacity:1"
         d="m 550,262.36218 150,0"
         id="path3251-7"
         inkscape:connector-curvature="0" />
      <text
         xml:space="preserve"
         style="font-size:12px;font-style:italic;font-variant:normal;font-weight:normal;font-stretch:normal;text-align:center;line-height:125%;writing-mode:lr-tb;text-anchor:middle;opacity:0.98000004;color:#000000;fill:#000000;fill-opacity:1;stroke:none;stroke-width:1;marker:none;visibility:visible;display:inline;overflow:visible;enable-background:accumulate;font-family:Asana Math;-inkscape-font-specification:Sans Italic"
         x="625.08429"
         y="255.36218"
         id="text3293"
         sodipodi:linespacing="125%"><tspan
           sodipodi:role="line"
           id="tspan3295"
           x="625.08429"
           y="255.36218">phase 2</tspan></text>
    </g>
    <g
       transform="translate(172.79297,-5)"
       id="g3317">
      <text
         xml:space="preserve"
         style="font-size:12px;font-style:normal;font-weight:normal;text-align:center;line-height:125%;letter-spacing:0px;word-spacing:0px;text-anchor:middle;fill:#000000;fill-opacity:1;stroke:none;font-family:Sans"
         x="327.20703"
         y="182.36218"
         id="text3033"
         sodipodi:linespacing="125%"><tspan
           sodipodi:role="line"
           id="tspan3035"
           x="327.20703"
           y="182.36218">Fonction états-actions</tspan><tspan
           sodipodi:role="line"
           x="327.20703"
           y="197.36218"
           id="tspan3037">approchée</tspan><tspan
           sodipodi:role="line"
           x="327.20703"
           y="212.36218"
           id="tspan3039" /></text>
      <g
         id="g3270"
         transform="matrix(0.32211498,0,0,0.32211498,178.91648,101.4604)">
        <g
           word-spacing="normal"
           letter-spacing="normal"
           font-size-adjust="none"
           font-stretch="normal"
           font-weight="normal"
           font-variant="normal"
           font-style="normal"
           stroke-miterlimit="10.433"
           xml:space="preserve"
           transform="matrix(1.0629921,0,0,-1.0629921,-186.02362,789.27165)"
           id="g3272"
           style="font-style:normal;font-variant:normal;font-weight:normal;font-stretch:normal;letter-spacing:normal;word-spacing:normal;text-anchor:start;fill:none;stroke:#000000;stroke-linecap:butt;stroke-linejoin:miter;stroke-miterlimit:10.43299961;stroke-opacity:1;stroke-dasharray:none;stroke-dashoffset:0"><polygon
             id="polygon3274"
             points="479.38,450.79 485.11,445.71 486,446.6 479.38,453.38 472.7,446.6 473.59,445.71 "
             style="fill:#000000;stroke-width:0" /><path
             id="path3276"
             d="m 477.35,406.5 0.72,0.29 0.72,0.33 0.71,0.35 0.71,0.4 0.7,0.42 0.69,0.45 0.68,0.48 0.68,0.51 0.65,0.54 0.65,0.56 0.63,0.59 0.61,0.61 0.6,0.64 0.57,0.66 0.56,0.68 0.54,0.7 0.51,0.72 0.49,0.73 0.46,0.76 0.44,0.77 0.41,0.79 0.38,0.8 0.35,0.82 0.32,0.83 0.29,0.84 0.25,0.85 0.21,0.87 0.18,0.87 0.15,0.88 0.1,0.89 0.06,0.89 0.02,0.9 c 0,8.03 -5.28,13.4 -12.71,13.4 l -0.3,-1.25 c 4.98,0 8.62,-3.87 8.62,-10.56 0,-4.98 -2.54,-16.64 -10.9,-21.31 -0.25,1.73 -0.75,5.37 -4.39,5.37 v -1.09 c 2.09,0 3.04,-1.2 3.04,-4.23 0,-0.75 -0.06,-0.8 -0.56,-1 -1.28,-0.55 -2.78,-0.89 -4.17,-0.89 h 0 c -0.7,0 -2.3,0 -2.3,2.14 0,1.98 1.89,3.98 3.99,3.98 v 1.09 c -2.64,0 -5.08,-2.5 -5.08,-5.07 0,-1 0.3,-1.55 0.3,-1.6 h 0 c -3.89,1.53 -5.58,5.42 -5.58,9.91 0,3.44 1.29,10.51 5.08,15.89 3.64,5.09 8.32,7.37 11.95,7.37 l 0.3,1.25 c -10.75,0 -21.72,-11.31 -21.72,-22.92 0,-8.26 5.58,-13.29 12.76,-13.29 1.24,0 2.94,0.2 4.88,0.75 -0.21,-3.1 -0.21,-3.19 -0.21,-3.85 0,-1.59 0,-5.48 4.15,-5.48 5.92,0 8.31,9.12 8.31,9.67 0,0.34 -0.35,0.5 -0.55,0.5 -0.39,0 -0.5,-0.25 -0.59,-0.55 -1.19,-3.54 -4.08,-4.78 -5.83,-4.78 -2.3,0 -3.05,1.34 -3.53,5.13 z"
             inkscape:connector-curvature="0"
             style="fill:#000000;stroke-width:0" /><path
             id="path3278"
             d="m 505.72,436.86 h 4.14 c -0.53,-2.1 -1.29,-5.27 -1.29,-8.02 0,-1.41 0.18,-2.34 0.39,-3.11 0.56,-1.73 1.01,-1.87 1.56,-1.87 0.81,0 1.64,0.73 1.64,1.56 0,0.28 -0.06,0.42 -0.28,0.76 -0.66,1.3 -1.28,3.28 -1.28,6.14 0,0.66 0,2.05 0.48,4.54 h 4.36 c 0.63,0 0.91,0 1.28,0.26 0.49,0.36 0.6,0.91 0.6,1.08 0,1.01 -0.91,1.01 -1.5,1.01 h -13.13 c -1.44,0 -2.4,-0.31 -3.98,-1.78 -0.91,-0.79 -2.27,-2.67 -2.27,-2.98 0,-0.42 0.45,-0.42 0.6,-0.42 0.39,0 0.42,0.06 0.62,0.37 1.78,2.46 3.94,2.46 4.7,2.46 h 2.13 c -1.08,-3.85 -2.95,-7.96 -4,-10.05 -0.2,-0.45 -0.56,-1.19 -0.66,-1.31 -0.04,-0.14 -0.11,-0.29 -0.11,-0.54 0,-0.56 0.42,-1.1 1.22,-1.1 1.39,0 1.78,1.56 2.61,4.7 z"
             inkscape:connector-curvature="0"
             style="fill:#000000;stroke-width:0" /><path
             id="path3280"
             d="m 570.03,422.5 0.15,0 0.14,0 0.14,0 0.08,0.01 0.07,0 0.07,0.01 0.07,0.01 0.07,0.01 0.07,0.01 0.07,0.01 0.07,0.02 0.06,0.02 0.06,0.02 0.07,0.02 0.05,0.03 0.06,0.03 0.05,0.04 0.05,0.03 0.05,0.05 0.04,0.04 0.04,0.05 0.02,0.03 0.02,0.03 0.01,0.02 0.02,0.03 0.01,0.03 0.02,0.04 0.01,0.03 0.01,0.04 0.01,0.03 0.01,0.04 0.01,0.04 0,0.04 0.01,0.04 0,0.04 0,0.04 0,0.05 c 0,1 -0.95,1 -1.64,1 h -29.84 c -0.71,0 -1.64,0 -1.64,-1 0,-0.98 0.93,-0.98 1.68,-0.98 z"
             inkscape:connector-curvature="0"
             style="fill:#000000;stroke-width:0" /><path
             id="path3282"
             d="m 570.08,412.82 0.07,0 0.06,0 0.14,0.01 0.14,0 0.07,0 0.07,0.01 0.07,0.01 0.07,0 0.07,0.01 0.06,0.02 0.07,0.01 0.07,0.02 0.06,0.02 0.06,0.02 0.06,0.02 0.06,0.03 0.05,0.03 0.06,0.04 0.04,0.04 0.05,0.04 0.04,0.05 0.02,0.02 0.02,0.03 0.02,0.02 0.02,0.03 0.02,0.03 0.01,0.03 0.01,0.03 0.02,0.03 0.01,0.04 0.01,0.03 0.01,0.04 0.01,0.04 0.01,0.04 0,0.04 0.01,0.04 0,0.04 0,0.05 0,0.04 c 0,1 -0.95,1 -1.69,1 h -29.75 c -0.75,0 -1.68,0 -1.68,-1 0,-1 0.93,-1 1.64,-1 z"
             inkscape:connector-curvature="0"
             style="fill:#000000;stroke-width:0" /><path
             id="path3284"
             d="m 609.33,416.91 -17.69,-21.86 c -0.39,-0.5 -0.44,-0.61 -0.44,-0.8 0,-0.56 0.44,-0.56 1.35,-0.56 h 41.29 l 4.28,12.41 h -1.23 c -1.25,-3.74 -4.59,-6.77 -8.83,-8.22 -0.79,-0.25 -4.23,-1.44 -11.54,-1.44 h -21.19 l 17.29,21.38 c 0.35,0.43 0.46,0.59 0.46,0.79 0,0.19 -0.06,0.25 -0.36,0.69 l -16.19,22.22 h 19.74 c 5.67,0 17.12,-0.34 20.62,-9.66 h 1.23 l -4.28,11.66 h -41.29 c -1.35,0 -1.39,-0.05 -1.39,-1.59 z"
             inkscape:connector-curvature="0"
             style="fill:#000000;stroke-width:0" /><path
             id="path3286"
             d="m 652.22,412.98 0,0.05 -0.01,0.06 0,0.05 -0.01,0.05 -0.01,0.06 -0.02,0.06 -0.01,0.05 -0.02,0.06 -0.02,0.05 -0.03,0.06 -0.03,0.06 -0.03,0.05 -0.03,0.05 -0.04,0.06 -0.03,0.05 -0.05,0.05 -0.04,0.05 -0.05,0.05 -0.05,0.04 -0.05,0.04 -0.06,0.04 -0.06,0.04 -0.06,0.04 -0.06,0.03 -0.07,0.03 -0.07,0.02 -0.08,0.03 -0.07,0.01 -0.09,0.02 -0.08,0.01 -0.09,0.01 -0.09,0 c -0.93,0 -1.95,-0.91 -1.95,-1.92 0,-0.6 0.45,-1.33 1.41,-1.33 1,0 1.95,0.98 1.95,1.92 z"
             inkscape:connector-curvature="0"
             style="fill:#000000;stroke-width:0" /><path
             id="path3288"
             d="m 645.11,395.28 -0.05,-0.17 -0.06,-0.17 -0.03,-0.08 -0.02,-0.09 -0.03,-0.09 -0.02,-0.08 -0.02,-0.09 -0.02,-0.1 -0.02,-0.09 -0.01,-0.1 -0.02,-0.09 0,-0.05 -0.01,-0.06 0,-0.05 0,-0.05 0,-0.06 0,-0.05 c 0,-1.64 1.39,-2.95 3.29,-2.95 3.49,0 5.03,4.79 5.03,5.32 0,0.46 -0.45,0.46 -0.56,0.46 -0.48,0 -0.53,-0.21 -0.67,-0.6 -0.8,-2.78 -2.33,-4.22 -3.69,-4.22 -0.7,0 -0.87,0.46 -0.87,1.22 0,0.8 0.25,1.47 0.56,2.24 0.34,0.93 0.73,1.87 1.11,2.78 0.31,0.84 1.58,4.01 1.72,4.44 0.09,0.34 0.2,0.76 0.2,1.11 0,1.64 -1.39,2.95 -3.31,2.95 -3.45,0 -5.05,-4.74 -5.05,-5.33 0,-0.45 0.49,-0.45 0.6,-0.45 0.48,0 0.51,0.17 0.62,0.56 0.91,3 2.44,4.25 3.72,4.25 0.56,0 0.88,-0.28 0.88,-1.22 0,-0.8 -0.21,-1.33 -1.08,-3.48 z"
             inkscape:connector-curvature="0"
             style="fill:#000000;stroke-width:0" /><path
             id="path3290"
             d="m 688.9,423.09 0.02,0.1 0.02,0.11 0.03,0.12 0.03,0.11 0.03,0.12 0.03,0.12 0.06,0.25 0.06,0.25 0.06,0.25 0.06,0.24 0.06,0.25 0.03,0.11 0.03,0.12 0.03,0.11 0.02,0.11 0.03,0.1 0.02,0.1 0.02,0.1 0.02,0.09 0.02,0.08 0.02,0.08 0.01,0.07 0.01,0.06 0.01,0.06 0.01,0.05 0,0.04 0.01,0.03 c 0,0.91 -0.71,1.35 -1.46,1.35 -0.59,0 -1.48,-0.39 -1.83,-1.39 -0.15,-0.35 -2.5,-9.86 -2.84,-11.16 -0.36,-1.5 -0.45,-2.39 -0.45,-3.3 0,-0.54 0,-0.64 0.04,-0.89 -1.14,-2.64 -2.64,-4.18 -4.58,-4.18 -3.98,0 -3.98,3.68 -3.98,4.53 0,1.59 0.25,3.54 2.6,9.67 0.54,1.48 0.84,2.19 0.84,3.19 0,2.23 -1.64,4.07 -4.09,4.07 -4.74,0 -6.58,-7.21 -6.58,-7.67 0,-0.5 0.5,-0.5 0.61,-0.5 0.5,0 0.54,0.11 0.79,0.91 1.35,4.62 3.28,6.17 5.03,6.17 0.44,0 1.25,-0.05 1.25,-1.64 0,-1.25 -0.56,-2.64 -0.9,-3.48 -2.19,-5.88 -2.78,-8.18 -2.78,-10.07 0,-4.53 3.33,-6.28 7.06,-6.28 0.86,0 3.19,0 5.19,3.49 1.29,-3.19 4.73,-3.49 6.23,-3.49 3.73,0 5.92,3.14 7.22,6.13 1.69,3.89 3.28,10.56 3.28,12.95 0,2.75 -1.34,3.48 -2.19,3.48 -1.25,0 -2.48,-1.29 -2.48,-2.39 0,-0.64 0.3,-0.93 0.73,-1.34 0.55,-0.55 1.8,-1.84 1.8,-4.23 0,-1.69 -1.44,-6.58 -2.73,-9.11 -1.3,-2.64 -3.05,-4.39 -5.49,-4.39 -2.34,0 -3.69,1.5 -3.69,4.32 0,1.41 0.35,2.96 0.55,3.64 z"
             inkscape:connector-curvature="0"
             style="fill:#000000;stroke-width:0" /><path
             id="path3292"
             d="m 712.82,420.54 -0.01,0.05 0,0.06 -0.01,0.05 0,0.06 -0.02,0.05 -0.01,0.06 -0.02,0.05 -0.02,0.06 -0.02,0.06 -0.02,0.05 -0.03,0.06 -0.03,0.05 -0.03,0.06 -0.04,0.05 -0.04,0.05 -0.04,0.05 -0.04,0.05 -0.05,0.05 -0.05,0.04 -0.05,0.05 -0.06,0.04 -0.06,0.03 -0.06,0.04 -0.06,0.03 -0.07,0.03 -0.07,0.03 -0.08,0.02 -0.08,0.02 -0.08,0.01 -0.08,0.01 -0.09,0.01 -0.09,0 c -0.94,0 -1.95,-0.91 -1.95,-1.92 0,-0.59 0.45,-1.33 1.4,-1.33 1,0 1.96,0.99 1.96,1.92 z"
             inkscape:connector-curvature="0"
             style="fill:#000000;stroke-width:0" /><path
             id="path3294"
             d="m 705.71,402.84 -0.06,-0.17 -0.05,-0.17 -0.03,-0.08 -0.02,-0.09 -0.03,-0.08 -0.02,-0.09 -0.02,-0.09 -0.02,-0.09 -0.02,-0.1 -0.02,-0.09 -0.01,-0.1 0,-0.05 -0.01,-0.05 0,-0.06 0,-0.05 0,-0.05 0,-0.06 c 0,-1.64 1.38,-2.95 3.29,-2.95 3.49,0 5.03,4.79 5.03,5.33 0,0.45 -0.45,0.45 -0.56,0.45 -0.48,0 -0.53,-0.2 -0.67,-0.59 -0.8,-2.79 -2.33,-4.22 -3.69,-4.22 -0.7,0 -0.87,0.45 -0.87,1.22 0,0.79 0.25,1.46 0.56,2.23 0.34,0.94 0.73,1.87 1.11,2.78 0.31,0.84 1.58,4.02 1.72,4.44 0.09,0.34 0.2,0.76 0.2,1.11 0,1.64 -1.39,2.95 -3.31,2.95 -3.46,0 -5.05,-4.73 -5.05,-5.33 0,-0.45 0.49,-0.45 0.59,-0.45 0.49,0 0.52,0.17 0.63,0.56 0.9,3 2.44,4.25 3.72,4.25 0.56,0 0.87,-0.28 0.87,-1.22 0,-0.79 -0.2,-1.32 -1.07,-3.48 z"
             inkscape:connector-curvature="0"
             style="fill:#000000;stroke-width:0" /><path
             id="path3296"
             d="m 739.84,439.57 0,0.01 0,0.01 0,0 0.01,0.01 0,0.01 0,0.01 0,0 0,0.01 0,0.02 0.01,0.03 0,0.02 0.01,0.02 0,0.03 0.01,0.03 0.01,0.02 0,0.03 0.01,0.03 0.01,0.03 0.01,0.06 0.02,0.06 0,0.03 0.01,0.02 0.01,0.03 0,0.03 0.01,0.02 0.01,0.02 0,0.02 0.01,0.02 0,0.01 0,0.01 0,0.01 0,0.01 0,0 0.01,0.01 0,0.01 0,0 0,0.01 0,0 0,0 0,0.01 c 0,0.04 0,0.5 -0.59,0.5 -0.5,0 -0.55,-0.16 -0.75,-1 l -2.89,-11.5 c -7.93,-0.25 -15.25,-6.88 -15.25,-13.66 0,-4.73 3.48,-8.67 9.56,-9.01 l 0.25,1.09 c -2.99,0.14 -6.58,1.89 -6.58,6.87 0,5.99 4.3,12.96 11.72,13.6 l -5.14,-20.47 -0.25,-1.09 c -0.39,-1.55 -0.74,-3.15 -1.14,-4.69 -0.6,-2.35 -1.1,-4.24 -1.1,-4.39 0,-0.49 0.35,-0.55 0.6,-0.55 0.25,0 0.36,0.06 0.5,0.2 0.09,0.1 0.4,1.3 0.54,2 l 1.9,7.43 0.24,1.09 5.15,20.47 c 3.78,-0.19 6.62,-2.49 6.62,-6.88 0,-5.87 -4.28,-13 -11.77,-13.59 l -0.24,-1.09 c 8.03,0.25 15.24,6.96 15.24,13.64 0,3.93 -2.64,8.53 -9.56,9.03 z"
             inkscape:connector-curvature="0"
             style="fill:#000000;stroke-width:0" /><path
             id="path3298"
             d="m 759.02,420.54 -0.01,0.05 0,0.06 -0.01,0.05 0,0.06 -0.02,0.05 -0.01,0.06 -0.02,0.05 -0.02,0.06 -0.02,0.06 -0.02,0.05 -0.03,0.06 -0.03,0.05 -0.03,0.06 -0.04,0.05 -0.04,0.05 -0.04,0.05 -0.04,0.05 -0.05,0.05 -0.05,0.04 -0.05,0.05 -0.06,0.04 -0.06,0.03 -0.06,0.04 -0.07,0.03 -0.06,0.03 -0.08,0.03 -0.07,0.02 -0.08,0.02 -0.08,0.01 -0.08,0.01 -0.09,0.01 -0.09,0 c -0.94,0 -1.95,-0.91 -1.95,-1.92 0,-0.59 0.45,-1.33 1.4,-1.33 1,0 1.96,0.99 1.96,1.92 z"
             inkscape:connector-curvature="0"
             style="fill:#000000;stroke-width:0" /><path
             id="path3300"
             d="m 751.91,402.84 -0.06,-0.17 -0.05,-0.17 -0.03,-0.08 -0.02,-0.09 -0.03,-0.08 -0.02,-0.09 -0.02,-0.09 -0.02,-0.09 -0.02,-0.1 -0.02,-0.09 -0.01,-0.1 0,-0.05 -0.01,-0.05 0,-0.06 0,-0.05 -0.01,-0.05 0,-0.06 c 0,-1.64 1.39,-2.95 3.3,-2.95 3.49,0 5.03,4.79 5.03,5.33 0,0.45 -0.45,0.45 -0.56,0.45 -0.48,0 -0.53,-0.2 -0.67,-0.59 -0.8,-2.79 -2.33,-4.22 -3.69,-4.22 -0.7,0 -0.88,0.45 -0.88,1.22 0,0.79 0.26,1.46 0.57,2.23 0.34,0.94 0.73,1.87 1.11,2.78 0.31,0.84 1.58,4.02 1.72,4.44 0.09,0.34 0.2,0.76 0.2,1.11 0,1.64 -1.39,2.95 -3.31,2.95 -3.46,0 -5.05,-4.73 -5.05,-5.33 0,-0.45 0.48,-0.45 0.59,-0.45 0.49,0 0.52,0.17 0.63,0.56 0.9,3 2.44,4.25 3.72,4.25 0.56,0 0.87,-0.28 0.87,-1.22 0,-0.79 -0.2,-1.32 -1.08,-3.48 z"
             inkscape:connector-curvature="0"
             style="fill:#000000;stroke-width:0" /></g>      </g>
      <rect
         style="opacity:0.98000004;color:#000000;fill:none;stroke:#000000;stroke-width:1;marker:none;visibility:visible;display:inline;overflow:visible;enable-background:accumulate"
         id="rect3297-9"
         width="145"
         height="60"
         x="255"
         y="167.36218"
         ry="0" />
    </g>
    <path
       sodipodi:nodetypes="ccc"
       inkscape:connector-curvature="0"
       id="path3378"
       d="m 375,244.36218 0,-52 47,0"
       style="fill:none;stroke:#000000;stroke-width:2;stroke-linecap:butt;stroke-linejoin:miter;stroke-miterlimit:4;stroke-opacity:1;stroke-dasharray:none;marker-end:url(#TriangleOutM)" />
    <path
       sodipodi:nodetypes="ccc"
       inkscape:connector-curvature="0"
       id="path3380"
       d="m 573,192.36218 52,0 0,46"
       style="fill:none;stroke:#000000;stroke-width:2;stroke-linecap:butt;stroke-linejoin:miter;stroke-miterlimit:4;stroke-opacity:1;stroke-dasharray:none;marker-end:url(#TriangleOutM)" />
    <path
       sodipodi:nodetypes="ccc"
       inkscape:connector-curvature="0"
       id="path3382"
       d="m 625,314.36218 0,43 -79,0"
       style="fill:none;stroke:#000000;stroke-width:2;stroke-linecap:butt;stroke-linejoin:miter;stroke-miterlimit:4;stroke-opacity:1;stroke-dasharray:none;marker-end:url(#TriangleOutM)" />
    <path
       sodipodi:nodetypes="ccc"
       inkscape:connector-curvature="0"
       id="path3384"
       d="m 460,357.36218 -85,0 0,-37"
       style="fill:none;stroke:#000000;stroke-width:2;stroke-linecap:butt;stroke-linejoin:miter;stroke-miterlimit:4;stroke-opacity:1;stroke-dasharray:none;marker-end:url(#TriangleOutM)" />
    <path
       sodipodi:nodetypes="cc"
       inkscape:connector-curvature="0"
       id="path4987"
       d="m 330,357.36218 0,-37"
       style="fill:none;stroke:#000000;stroke-width:2;stroke-linecap:butt;stroke-linejoin:miter;stroke-miterlimit:4;stroke-opacity:1;stroke-dasharray:none;marker-end:url(#TriangleOutM)" />
    <text
       sodipodi:linespacing="125%"
       id="text5175"
       y="367.36218"
       x="330"
       style="font-size:12px;font-style:italic;font-variant:normal;font-weight:normal;font-stretch:normal;text-align:center;line-height:125%;writing-mode:lr-tb;text-anchor:middle;opacity:0.98000004;color:#000000;fill:#000000;stroke:none;stroke-width:2;marker:none;visibility:visible;display:inline;overflow:visible;enable-background:accumulate;font-family:Asana Math;-inkscape-font-specification:Sans Italic"
       xml:space="preserve"><tspan
         y="367.36218"
         x="330"
         id="tspan5177"
         sodipodi:role="line">échantillons</tspan></text>
    <g
       id="g5264"
       transform="matrix(0.30115085,0,0,0.30115085,206.51681,276.98475)">
      <g
         word-spacing="normal"
         letter-spacing="normal"
         font-size-adjust="none"
         font-stretch="normal"
         font-weight="normal"
         font-variant="normal"
         font-style="normal"
         stroke-miterlimit="10.433"
         xml:space="preserve"
         transform="matrix(1.0629921,0,0,-1.0629921,-186.02362,789.27165)"
         id="g5266"
         style="font-style:normal;font-variant:normal;font-weight:normal;font-stretch:normal;letter-spacing:normal;word-spacing:normal;text-anchor:start;fill:none;stroke:#000000;stroke-linecap:butt;stroke-linejoin:miter;stroke-miterlimit:10.43299961;stroke-opacity:1;stroke-dasharray:none;stroke-dashoffset:0"><path
           id="path5268"
           d="m 472,394.25 0,0.02 0,0.03 0,0.01 0,0.02 0,0.01 -0.01,0.02 0,0.01 -0.01,0.02 -0.01,0.02 -0.01,0.02 -0.01,0.02 -0.02,0.03 -0.01,0.02 -0.02,0.03 -0.02,0.03 -0.03,0.03 -0.02,0.03 -0.03,0.04 -0.02,0.02 -0.01,0.02 -0.02,0.02 -0.02,0.02 -0.02,0.02 -0.02,0.03 -0.02,0.02 -0.02,0.02 -0.02,0.03 -0.03,0.02 -0.02,0.03 -0.03,0.03 -0.03,0.03 -0.02,0.03 -0.03,0.03 -0.03,0.03 -0.03,0.03 -0.03,0.03 -0.04,0.04 -0.03,0.03 -0.04,0.04 -0.03,0.03 -0.04,0.04 -0.04,0.04 c -6.22,6.28 -7.81,15.69 -7.81,23.31 0,8.67 1.89,17.35 8.01,23.56 0.64,0.61 0.64,0.71 0.64,0.86 0,0.35 -0.18,0.49 -0.48,0.49 -0.5,0 -4.98,-3.38 -7.92,-9.7 -2.55,-5.49 -3.14,-11.02 -3.14,-15.21 0,-3.89 0.54,-9.9 3.28,-15.54 2.98,-6.13 7.28,-9.36 7.78,-9.36 0.3,0 0.48,0.14 0.48,0.5 z"
           inkscape:connector-curvature="0"
           style="fill:#000000;stroke-width:0" /><path
           id="path5270"
           d="m 494.32,424.84 -0.13,-0.01 -0.13,-0.01 -0.12,-0.02 -0.13,-0.03 -0.12,-0.03 -0.11,-0.04 -0.12,-0.04 -0.11,-0.04 -0.1,-0.05 -0.11,-0.06 -0.1,-0.06 -0.09,-0.06 -0.1,-0.07 -0.09,-0.07 -0.08,-0.07 -0.08,-0.08 -0.08,-0.08 -0.07,-0.08 -0.07,-0.09 -0.06,-0.08 -0.06,-0.09 -0.06,-0.1 -0.05,-0.09 -0.04,-0.1 -0.04,-0.09 -0.04,-0.1 -0.03,-0.1 -0.02,-0.1 -0.02,-0.1 -0.02,-0.11 -0.01,-0.1 0,-0.1 c 0,-0.7 0.44,-1.44 1.55,-1.44 1.09,0 2.28,0.85 2.28,2.78 0,2.25 -2.14,4.28 -5.92,4.28 -6.58,0 -8.43,-5.07 -8.43,-7.26 0,-3.89 3.69,-4.64 5.13,-4.94 2.59,-0.5 5.19,-1.05 5.19,-3.78 0,-1.3 -1.14,-5.48 -7.13,-5.48 -0.7,0 -4.53,0 -5.69,2.64 1.91,-0.25 3.14,1.25 3.14,2.64 0,1.14 -0.79,1.75 -1.84,1.75 -1.3,0 -2.78,-1.05 -2.78,-3.3 0,-2.84 2.84,-4.83 7.12,-4.83 8.07,0 10.02,6.03 10.02,8.27 0,1.79 -0.95,3.04 -1.55,3.64 -1.34,1.39 -2.79,1.64 -4.98,2.09 -1.8,0.39 -3.78,0.75 -3.78,2.99 0,1.45 1.19,4.48 5.58,4.48 1.23,0 3.73,-0.34 4.48,-2.28 z"
           inkscape:connector-curvature="0"
           style="fill:#000000;stroke-width:0" /><path
           id="path5272"
           d="m 508.34,406.25 0,0.3 -0.01,0.3 -0.02,0.29 -0.02,0.28 -0.03,0.27 -0.04,0.26 -0.05,0.26 -0.05,0.24 -0.06,0.24 -0.06,0.23 -0.07,0.22 -0.08,0.21 -0.08,0.2 -0.09,0.19 -0.1,0.19 -0.1,0.17 -0.1,0.16 -0.12,0.16 -0.11,0.14 -0.13,0.13 -0.13,0.13 -0.13,0.11 -0.14,0.1 -0.14,0.1 -0.15,0.08 -0.15,0.07 -0.16,0.06 -0.17,0.05 -0.16,0.04 -0.18,0.03 -0.17,0.01 -0.18,0.01 c -1.64,0 -2.64,-1.25 -2.64,-2.64 0,-1.34 1,-2.64 2.64,-2.64 0.59,0 1.25,0.2 1.75,0.64 0.14,0.11 0.2,0.16 0.25,0.16 0.04,0 0.09,-0.05 0.09,-0.75 0,-3.69 -1.73,-6.68 -3.39,-8.32 -0.55,-0.54 -0.55,-0.65 -0.55,-0.79 0,-0.36 0.25,-0.55 0.5,-0.55 0.55,0 4.53,3.83 4.53,9.66 z"
           inkscape:connector-curvature="0"
           style="fill:#000000;stroke-width:0" /><path
           id="path5274"
           d="m 538.89,425.03 -0.08,0.17 -0.09,0.17 -0.09,0.16 -0.1,0.16 -0.1,0.16 -0.1,0.16 -0.11,0.15 -0.11,0.14 -0.11,0.15 -0.12,0.13 -0.12,0.14 -0.12,0.13 -0.13,0.12 -0.13,0.12 -0.14,0.11 -0.13,0.11 -0.15,0.11 -0.15,0.09 -0.15,0.1 -0.15,0.08 -0.16,0.08 -0.17,0.08 -0.16,0.06 -0.17,0.07 -0.18,0.05 -0.18,0.05 -0.19,0.04 -0.19,0.03 -0.19,0.03 -0.2,0.02 -0.2,0.01 -0.21,0 0.05,-1.09 c 3.23,0 3.94,-4.08 3.94,-4.37 0,-0.32 -0.1,-0.61 -0.14,-0.86 l -2.5,-9.77 c -0.25,-0.89 -0.25,-0.98 -1,-1.84 -2.19,-2.74 -4.24,-3.53 -5.63,-3.53 -2.48,0 -3.19,2.73 -3.19,4.68 0,2.49 1.6,8.61 2.74,10.91 1.54,2.94 3.8,4.78 5.78,4.78 l -0.05,1.09 c -5.83,0 -12,-7.31 -12,-14.59 0,-4.69 2.74,-7.97 6.63,-7.97 0.98,0 3.48,0.21 6.47,3.74 0.4,-2.1 2.14,-3.74 4.53,-3.74 1.75,0 2.89,1.14 3.68,2.74 0.85,1.79 1.5,4.84 1.5,4.93 0,0.5 -0.45,0.5 -0.59,0.5 -0.5,0 -0.55,-0.2 -0.7,-0.9 -0.85,-3.24 -1.75,-6.17 -3.78,-6.17 -1.35,0 -1.5,1.29 -1.5,2.29 0,1.1 0.09,1.49 0.64,3.69 0.56,2.09 0.65,2.59 1.11,4.48 l 1.78,6.97 c 0.36,1.39 0.36,1.5 0.36,1.69 0,0.86 -0.61,1.36 -1.46,1.36 -1.18,0 -1.93,-1.11 -2.09,-2.2 z"
           inkscape:connector-curvature="0"
           style="fill:#000000;stroke-width:0" /><path
           id="path5276"
           d="m 556.7,406.25 0,0.3 -0.02,0.3 -0.01,0.29 -0.03,0.28 -0.03,0.27 -0.04,0.26 -0.04,0.26 -0.05,0.24 -0.06,0.24 -0.07,0.23 -0.07,0.22 -0.07,0.21 -0.09,0.2 -0.09,0.19 -0.09,0.19 -0.1,0.17 -0.11,0.16 -0.11,0.16 -0.12,0.14 -0.12,0.13 -0.13,0.13 -0.13,0.11 -0.14,0.1 -0.15,0.1 -0.14,0.08 -0.16,0.07 -0.16,0.06 -0.16,0.05 -0.17,0.04 -0.17,0.03 -0.18,0.01 -0.18,0.01 c -1.64,0 -2.64,-1.25 -2.64,-2.64 0,-1.34 1,-2.64 2.64,-2.64 0.59,0 1.25,0.2 1.75,0.64 0.14,0.11 0.21,0.16 0.25,0.16 0.05,0 0.09,-0.05 0.09,-0.75 0,-3.69 -1.73,-6.68 -3.38,-8.32 -0.55,-0.54 -0.55,-0.65 -0.55,-0.79 0,-0.36 0.25,-0.55 0.5,-0.55 0.55,0 4.53,3.83 4.53,9.66 z"
           inkscape:connector-curvature="0"
           style="fill:#000000;stroke-width:0" /><path
           id="path5278"
           d="m 573.05,409.14 -0.01,-0.07 -0.02,-0.08 -0.01,-0.07 -0.02,-0.08 -0.04,-0.16 -0.03,-0.16 -0.04,-0.16 -0.04,-0.16 -0.03,-0.16 -0.04,-0.16 -0.02,-0.08 -0.01,-0.07 -0.02,-0.07 -0.02,-0.07 -0.01,-0.07 -0.01,-0.07 -0.02,-0.06 -0.01,-0.06 -0.01,-0.06 -0.01,-0.05 -0.01,-0.05 0,-0.04 -0.01,-0.04 0,-0.04 -0.01,-0.03 0,-0.02 c 0,-0.89 0.7,-1.35 1.44,-1.35 0.61,0 1.5,0.39 1.84,1.39 0.11,0.21 1.8,6.99 2,7.88 0.39,1.64 1.3,5.12 1.6,6.48 0.2,0.64 1.59,2.99 2.78,4.08 0.4,0.34 1.84,1.64 4,1.64 1.28,0 2.03,-0.59 2.08,-0.59 -1.49,-0.25 -2.58,-1.46 -2.58,-2.74 0,-0.79 0.54,-1.75 1.89,-1.75 1.34,0 2.73,1.14 2.73,2.94 0,1.75 -1.59,3.23 -4.12,3.23 -3.25,0 -5.44,-2.43 -6.39,-3.82 -0.39,2.23 -2.19,3.82 -4.53,3.82 -2.29,0 -3.24,-1.93 -3.69,-2.82 -0.89,-1.71 -1.55,-4.69 -1.55,-4.85 0,-0.5 0.5,-0.5 0.61,-0.5 0.5,0 0.55,0.07 0.84,1.16 0.85,3.53 1.85,5.92 3.65,5.92 0.84,0 1.54,-0.39 1.54,-2.28 0,-1.05 -0.15,-1.61 -0.79,-4.19 z"
           inkscape:connector-curvature="0"
           style="fill:#000000;stroke-width:0" /><path
           id="path5280"
           d="m 599.77,406.25 0,0.3 -0.01,0.3 -0.02,0.29 -0.02,0.28 -0.04,0.27 -0.03,0.26 -0.05,0.26 -0.05,0.24 -0.06,0.24 -0.06,0.23 -0.07,0.22 -0.08,0.21 -0.08,0.2 -0.09,0.19 -0.1,0.19 -0.1,0.17 -0.1,0.16 -0.12,0.16 -0.11,0.14 -0.13,0.13 -0.13,0.13 -0.13,0.11 -0.14,0.1 -0.14,0.1 -0.15,0.08 -0.15,0.07 -0.16,0.06 -0.17,0.05 -0.16,0.04 -0.18,0.03 -0.17,0.01 -0.18,0.01 c -1.64,0 -2.64,-1.25 -2.64,-2.64 0,-1.34 1,-2.64 2.64,-2.64 0.59,0 1.25,0.2 1.75,0.64 0.14,0.11 0.2,0.16 0.25,0.16 0.04,0 0.09,-0.05 0.09,-0.75 0,-3.69 -1.73,-6.68 -3.39,-8.32 -0.55,-0.54 -0.55,-0.65 -0.55,-0.79 0,-0.36 0.25,-0.55 0.5,-0.55 0.55,0 4.53,3.83 4.53,9.66 z"
           inkscape:connector-curvature="0"
           style="fill:#000000;stroke-width:0" /><path
           id="path5282"
           d="m 631.23,424.84 -0.13,-0.01 -0.13,-0.01 -0.13,-0.02 -0.12,-0.03 -0.12,-0.03 -0.12,-0.04 -0.11,-0.04 -0.11,-0.04 -0.11,-0.05 -0.1,-0.06 -0.1,-0.06 -0.1,-0.06 -0.09,-0.07 -0.09,-0.07 -0.08,-0.07 -0.09,-0.08 -0.07,-0.08 -0.08,-0.08 -0.06,-0.09 -0.07,-0.08 -0.06,-0.09 -0.05,-0.1 -0.05,-0.09 -0.05,-0.1 -0.04,-0.09 -0.03,-0.1 -0.03,-0.1 -0.03,-0.1 -0.02,-0.1 -0.01,-0.11 -0.01,-0.1 0,-0.1 c 0,-0.7 0.43,-1.44 1.54,-1.44 1.1,0 2.28,0.85 2.28,2.78 0,2.25 -2.14,4.28 -5.92,4.28 -6.58,0 -8.42,-5.07 -8.42,-7.26 0,-3.89 3.69,-4.64 5.13,-4.94 2.59,-0.5 5.18,-1.05 5.18,-3.78 0,-1.3 -1.14,-5.48 -7.12,-5.48 -0.71,0 -4.53,0 -5.69,2.64 1.91,-0.25 3.14,1.25 3.14,2.64 0,1.14 -0.8,1.75 -1.84,1.75 -1.3,0 -2.78,-1.05 -2.78,-3.3 0,-2.84 2.84,-4.83 7.12,-4.83 8.06,0 10.02,6.03 10.02,8.27 0,1.79 -0.96,3.04 -1.55,3.64 -1.34,1.39 -2.8,1.64 -4.98,2.09 -1.8,0.39 -3.79,0.75 -3.79,2.99 0,1.45 1.19,4.48 5.58,4.48 1.24,0 3.74,-0.34 4.49,-2.28 z"
           inkscape:connector-curvature="0"
           style="fill:#000000;stroke-width:0" /><path
           id="path5284"
           d="m 645.27,440.65 0.03,0.06 0.02,0.05 0.02,0.05 0.02,0.05 0.02,0.04 0.02,0.05 0.02,0.04 0.02,0.04 0.01,0.05 0.02,0.04 0.01,0.03 0.01,0.04 0.01,0.04 0.01,0.03 0.01,0.04 0.01,0.03 0.01,0.03 0.01,0.03 0,0.03 0.01,0.03 0,0.03 0.01,0.03 0,0.03 0,0.02 0.01,0.06 0,0.05 0,0.04 0,0.05 c 0,1.08 -0.98,1.92 -2.06,1.92 -1.33,0 -1.74,-1.09 -1.91,-1.64 L 637,426.95 c -0.03,-0.06 -0.17,-0.52 -0.17,-0.56 0,-0.41 1.08,-0.77 1.36,-0.77 0.25,0 0.28,0.08 0.52,0.59 z"
           inkscape:connector-curvature="0"
           style="fill:#000000;stroke-width:0" /><path
           id="path5286"
           d="m 663.83,418.65 0,0.37 0,0.39 -0.01,0.39 -0.02,0.41 -0.04,0.84 -0.06,0.88 -0.08,0.92 -0.11,0.95 -0.13,0.97 -0.16,1.01 -0.2,1.02 -0.23,1.03 -0.27,1.05 -0.3,1.06 -0.35,1.07 -0.39,1.07 -0.22,0.53 -0.22,0.53 -0.24,0.53 -0.25,0.53 c -2.98,6.12 -7.27,9.36 -7.77,9.36 -0.29,0 -0.5,-0.19 -0.5,-0.49 0,-0.15 0,-0.25 0.94,-1.15 4.89,-4.92 7.74,-12.85 7.74,-23.27 0,-8.51 -1.85,-17.28 -8.03,-23.56 -0.65,-0.59 -0.65,-0.7 -0.65,-0.84 0,-0.3 0.21,-0.5 0.5,-0.5 0.5,0 4.97,3.39 7.93,9.71 2.53,5.47 3.12,11 3.12,15.19 z"
           inkscape:connector-curvature="0"
           style="fill:#000000;stroke-width:0" /></g>    </g>
  </g>
</svg>
